<mxfile host="app.diagrams.net" modified="2024-01-22T13:52:01.058Z" agent="Mozilla/5.0 (X11; Ubuntu; Linux x86_64; rv:121.0) Gecko/20100101 Firefox/121.0" etag="bfoQrDa21WKK1-WIiB6J" version="22.1.19" type="device">
  <diagram name="Page-1" id="NMfAQ61pdz57pdOC4wLM">
    <mxGraphModel dx="1793" dy="958" grid="1" gridSize="10" guides="1" tooltips="1" connect="1" arrows="1" fold="1" page="1" pageScale="1" pageWidth="850" pageHeight="1100" math="0" shadow="0">
      <root>
        <mxCell id="0" />
        <mxCell id="1" parent="0" />
        <mxCell id="7wYS-PvPPILCzykXi2fk-1" value="" style="rounded=0;whiteSpace=wrap;html=1;fillColor=none;" vertex="1" parent="1">
          <mxGeometry x="315" y="80" width="200" height="640" as="geometry" />
        </mxCell>
        <mxCell id="gNVla98ZM9sIJxjHNlG1-1" value="&lt;font style=&quot;font-size: 18px;&quot;&gt;Account Holder&lt;br&gt;&lt;/font&gt;" style="shape=umlActor;verticalLabelPosition=bottom;verticalAlign=top;html=1;outlineConnect=0;" parent="1" vertex="1">
          <mxGeometry x="140" y="320" width="80" height="160" as="geometry" />
        </mxCell>
        <mxCell id="gNVla98ZM9sIJxjHNlG1-2" value="Log in" style="ellipse;whiteSpace=wrap;html=1;verticalAlign=middle;fontSize=18;" parent="1" vertex="1">
          <mxGeometry x="355" y="180" width="120" height="80" as="geometry" />
        </mxCell>
        <mxCell id="gNVla98ZM9sIJxjHNlG1-12" style="rounded=0;orthogonalLoop=1;jettySize=auto;html=1;exitX=0;exitY=0.5;exitDx=0;exitDy=0;endArrow=none;endFill=0;" parent="1" source="gNVla98ZM9sIJxjHNlG1-3" edge="1">
          <mxGeometry relative="1" as="geometry">
            <mxPoint x="230" y="400" as="targetPoint" />
          </mxGeometry>
        </mxCell>
        <mxCell id="gNVla98ZM9sIJxjHNlG1-3" value="&lt;font style=&quot;font-size: 18px;&quot;&gt;Create in-person event&lt;br style=&quot;font-size: 18px;&quot;&gt;&lt;/font&gt;" style="ellipse;whiteSpace=wrap;html=1;verticalAlign=middle;fontSize=18;" parent="1" vertex="1">
          <mxGeometry x="355" y="270" width="120" height="80" as="geometry" />
        </mxCell>
        <mxCell id="gNVla98ZM9sIJxjHNlG1-4" value="&lt;font style=&quot;font-size: 18px;&quot;&gt;Create online event&lt;br style=&quot;font-size: 18px;&quot;&gt;&lt;/font&gt;" style="ellipse;whiteSpace=wrap;html=1;verticalAlign=middle;fontSize=18;" parent="1" vertex="1">
          <mxGeometry x="355" y="360" width="120" height="80" as="geometry" />
        </mxCell>
        <mxCell id="gNVla98ZM9sIJxjHNlG1-5" value="&lt;font style=&quot;font-size: 18px;&quot;&gt;Search for events&lt;br style=&quot;font-size: 18px;&quot;&gt;&lt;/font&gt;" style="ellipse;whiteSpace=wrap;html=1;verticalAlign=middle;fontSize=18;" parent="1" vertex="1">
          <mxGeometry x="355" y="450" width="120" height="80" as="geometry" />
        </mxCell>
        <mxCell id="gNVla98ZM9sIJxjHNlG1-6" value="&lt;font style=&quot;font-size: 18px;&quot;&gt;View event details&lt;br style=&quot;font-size: 18px;&quot;&gt;&lt;/font&gt;" style="ellipse;whiteSpace=wrap;html=1;verticalAlign=middle;fontSize=18;" parent="1" vertex="1">
          <mxGeometry x="355" y="540" width="120" height="80" as="geometry" />
        </mxCell>
        <mxCell id="gNVla98ZM9sIJxjHNlG1-7" value="&lt;font style=&quot;font-size: 18px;&quot;&gt;Register for event&lt;br style=&quot;font-size: 18px;&quot;&gt;&lt;/font&gt;" style="ellipse;whiteSpace=wrap;html=1;verticalAlign=middle;fontSize=18;" parent="1" vertex="1">
          <mxGeometry x="355" y="630" width="120" height="80" as="geometry" />
        </mxCell>
        <mxCell id="gNVla98ZM9sIJxjHNlG1-13" style="rounded=0;orthogonalLoop=1;jettySize=auto;html=1;exitX=0;exitY=0.5;exitDx=0;exitDy=0;endArrow=none;endFill=0;" parent="1" source="gNVla98ZM9sIJxjHNlG1-4" edge="1">
          <mxGeometry relative="1" as="geometry">
            <mxPoint x="230" y="400" as="targetPoint" />
            <mxPoint x="365" y="270" as="sourcePoint" />
          </mxGeometry>
        </mxCell>
        <mxCell id="gNVla98ZM9sIJxjHNlG1-15" style="rounded=0;orthogonalLoop=1;jettySize=auto;html=1;exitX=0;exitY=0.5;exitDx=0;exitDy=0;endArrow=none;endFill=0;" parent="1" source="gNVla98ZM9sIJxjHNlG1-5" edge="1">
          <mxGeometry relative="1" as="geometry">
            <mxPoint x="230" y="400" as="targetPoint" />
            <mxPoint x="365" y="360" as="sourcePoint" />
          </mxGeometry>
        </mxCell>
        <mxCell id="gNVla98ZM9sIJxjHNlG1-16" style="rounded=0;orthogonalLoop=1;jettySize=auto;html=1;exitX=0;exitY=0.5;exitDx=0;exitDy=0;endArrow=none;endFill=0;" parent="1" source="gNVla98ZM9sIJxjHNlG1-6" edge="1">
          <mxGeometry relative="1" as="geometry">
            <mxPoint x="230" y="400" as="targetPoint" />
            <mxPoint x="365" y="450" as="sourcePoint" />
          </mxGeometry>
        </mxCell>
        <mxCell id="gNVla98ZM9sIJxjHNlG1-17" style="rounded=0;orthogonalLoop=1;jettySize=auto;html=1;exitX=0;exitY=0.5;exitDx=0;exitDy=0;endArrow=none;endFill=0;" parent="1" source="gNVla98ZM9sIJxjHNlG1-7" edge="1">
          <mxGeometry relative="1" as="geometry">
            <mxPoint x="230" y="400" as="targetPoint" />
            <mxPoint x="355" y="620" as="sourcePoint" />
          </mxGeometry>
        </mxCell>
        <mxCell id="7wYS-PvPPILCzykXi2fk-3" value="&lt;font style=&quot;font-size: 18px;&quot;&gt;Guest&lt;/font&gt;" style="shape=umlActor;verticalLabelPosition=bottom;verticalAlign=top;html=1;outlineConnect=0;" vertex="1" parent="1">
          <mxGeometry x="610" y="320" width="80" height="160" as="geometry" />
        </mxCell>
        <mxCell id="7wYS-PvPPILCzykXi2fk-4" style="rounded=0;orthogonalLoop=1;jettySize=auto;html=1;exitX=1;exitY=0.5;exitDx=0;exitDy=0;endArrow=none;endFill=0;" edge="1" parent="1" source="gNVla98ZM9sIJxjHNlG1-2">
          <mxGeometry relative="1" as="geometry">
            <mxPoint x="600" y="400" as="targetPoint" />
            <mxPoint x="365" y="275" as="sourcePoint" />
          </mxGeometry>
        </mxCell>
        <mxCell id="7wYS-PvPPILCzykXi2fk-5" style="rounded=0;orthogonalLoop=1;jettySize=auto;html=1;exitX=1;exitY=0.5;exitDx=0;exitDy=0;endArrow=none;endFill=0;" edge="1" parent="1" source="gNVla98ZM9sIJxjHNlG1-5">
          <mxGeometry relative="1" as="geometry">
            <mxPoint x="600" y="400" as="targetPoint" />
            <mxPoint x="365" y="455" as="sourcePoint" />
          </mxGeometry>
        </mxCell>
        <mxCell id="7wYS-PvPPILCzykXi2fk-6" style="rounded=0;orthogonalLoop=1;jettySize=auto;html=1;exitX=1;exitY=0.5;exitDx=0;exitDy=0;endArrow=none;endFill=0;" edge="1" parent="1" source="gNVla98ZM9sIJxjHNlG1-6">
          <mxGeometry relative="1" as="geometry">
            <mxPoint x="600" y="400" as="targetPoint" />
            <mxPoint x="485" y="455" as="sourcePoint" />
          </mxGeometry>
        </mxCell>
        <mxCell id="7wYS-PvPPILCzykXi2fk-7" value="&lt;font style=&quot;font-size: 18px;&quot;&gt;Create account&lt;br style=&quot;font-size: 18px;&quot;&gt;&lt;/font&gt;" style="ellipse;whiteSpace=wrap;html=1;verticalAlign=middle;fontSize=18;" vertex="1" parent="1">
          <mxGeometry x="355" y="90" width="120" height="80" as="geometry" />
        </mxCell>
        <mxCell id="7wYS-PvPPILCzykXi2fk-8" style="rounded=0;orthogonalLoop=1;jettySize=auto;html=1;exitX=1;exitY=0.5;exitDx=0;exitDy=0;endArrow=none;endFill=0;" edge="1" parent="1" source="7wYS-PvPPILCzykXi2fk-7">
          <mxGeometry relative="1" as="geometry">
            <mxPoint x="600" y="400" as="targetPoint" />
            <mxPoint x="485" y="185" as="sourcePoint" />
          </mxGeometry>
        </mxCell>
      </root>
    </mxGraphModel>
  </diagram>
</mxfile>
